<svg xmlns="http://www.w3.org/2000/svg" viewBox="0 0 200 200" role="img" aria-label="the-vinci seal">
  <defs>
    <path id="seal-top" d="M 100,100 m -72,0 a 72,72 0 1,1 144,0"></path>
    <path id="seal-bottom" d="M 28,100 a 72,72 0 1,0 144,0"></path>
  </defs>
  <circle cx="100" cy="100" r="92" fill="none" stroke="#3B2A22" stroke-width="1"></circle>
  <circle cx="100" cy="100" r="86" fill="none" stroke="#3B2A22" stroke-width="0.5"></circle>
  <circle cx="100" cy="100" r="62" fill="none" stroke="#C89B5A" stroke-width="1"></circle>
  <text font-family="IBM Plex Mono, monospace" font-size="10" letter-spacing="4" fill="#3B2A22">
    <textPath href="#seal-top" startOffset="50%" text-anchor="middle">THE · VINCI · STUDIO</textPath>
  </text>
  <text font-family="IBM Plex Mono, monospace" font-size="9" letter-spacing="3" fill="#8E6A36">
    <textPath href="#seal-bottom" startOffset="50%" text-anchor="middle">VINCERE · VERITATEM · EST</textPath>
  </text>
  <g transform="translate(70,60)">
    <path fill="#8B2E2A" d="M4 4 L18 4 L30 46 L42 4 L56 4 L36 62 L24 62 Z"></path>
    <rect fill="#C89B5A" x="24" y="30" width="12" height="2"></rect>
  </g>
  <g transform="translate(100,152)" text-anchor="middle">
    <text font-family="Newsreader, serif" font-style="italic" font-size="11" fill="#8E6A36">est. mmxxvi</text>
  </g>
  
  <g fill="#C89B5A">
    <circle cx="100" cy="30" r="1.4"></circle>
    <circle cx="170" cy="100" r="1.4"></circle>
    <circle cx="100" cy="170" r="1.4"></circle>
    <circle cx="30" cy="100" r="1.4"></circle>
  </g>
</svg>